<svg width="382" height="297" viewBox="0 0 382 297" xmlns="http://www.w3.org/2000/svg"><title>Group 2</title><g fill="none" fill-rule="evenodd"><g transform="translate(79)"><path fill="#59C2E1" d="M175 204h2v-60h-2zm-83.61-36l.61-.806-15.221-7.8c-6.82-3.703-6.626-6.852-6.623-6.883l.002-.04V126h-1.155v26.455c-.026.37-.067 3.82 7.152 7.739L91.39 168"/><path d="M222.476 88h-9.988c-1.374 0-2.488-.905-2.488-2.021 0-1.117 1.114-2.022 2.488-2.022.609 0 1.167.178 1.599.473.046-1.9 1.955-3.43 4.305-3.43 2.378 0 4.307 1.567 4.307 3.5 0 .357-.066.702-.188 1.027.825.015 1.489.562 1.489 1.236 0 .683-.683 1.237-1.524 1.237"/><path d="M112.254 163l1.746-2.485-81.791-38.46c-9.448-4.079-9.706-7.356-9.705-7.712l.057-.161-.037-.071V102H19.02v12.02c-.13 1.046.049 5.597 11.525 10.56l81.71 38.42m1.505 34l64.56-30.36c8.678-3.904 8.694-10.79 8.679-11.357V106h-3.497v49.345c.007.225.072 5.698-6.913 8.84L112 194.559l1.76 2.442" fill="#36A1CE"/><path d="M31.04 169l.96-1.366L8.976 156.81c-4.374-2.026-4.055-4.755-4.04-4.87l.007-.095V64H3.016v87.805c-.057.52-.22 3.955 5.006 6.373L31.04 169m135.91-33l39.465-17.925c9.903-3.433 11.503-9.507 11.566-9.765l.019-.155V47h-1.947v61.068c-.196.666-1.929 5.632-10.447 8.568l-.094.037L166 134.62l.95 1.381" fill="#59C2E1"/><path d="M67.418 77l.582-.829-11.505-5.203c-5.545-2.565-5.317-6.029-5.306-6.175l.002-.035V21h-1.186v43.744c-.026.356-.164 4.243 5.902 7.05L67.417 77m59.133 55l20.6-8.872c5.783-1.978 5.85-7.887 5.85-8.138V93h-1.168v21.99c0 .055-.071 5.556-5.16 7.28l-.05.019L126 131.172l.55.828m76.405 16.288c9.141-3.247 9.068-7.573 9.042-7.96V133l-1.17.216.001 7.38c.012.151.198 3.845-8.104 6.795L186 153.1l.221.899" fill="#36A1CE"/><path fill="#59C2E1" d="M91 204h1V53h-1zm-54.335-23.897l30.347 14.208c.166.071 4.195 1.843 4.023 7.64-.074 2.487-.09 9.011-.082 16.049h1.96c-.009-6.987.008-13.505.081-16.01.197-6.643-4.586-8.867-5.065-9.073l-30.256-14.166c-5.297-2.645-4.71-6.161-4.684-6.31l.012-.121V25h-1.96v147.266c-.096.624-.483 4.789 5.624 7.837"/><path d="M43.977 167.93h5.045v-6.386h-5.045v6.385zm2.523 1.862a.627.627 0 0 1-.632-.623c0-.344.282-.623.632-.623.349 0 .632.279.632.623a.628.628 0 0 1-.632.623zm2.367-9.27h-4.735c-.626 0-1.132.5-1.132 1.116v8.046c0 .617.506 1.116 1.132 1.116h4.735c.626 0 1.133-.5 1.133-1.116v-8.046c0-.616-.507-1.116-1.133-1.116z" fill="#5AC2E0"/><path d="M72.866 88.116l21.867 10.123.141.04c.182.055 4.863 1.528 4.996 8.129V204H103v-97.613c-.158-7.842-5.856-10.096-6.943-10.456L74.424 85.916c-4.223-1.97-4.293-5.418-4.293-5.564V65H67v15.35c-.001.195.02 5.038 5.866 7.766M112 203h4V4h-4z" fill="#36A1CE"/><path d="M125.55 52.984l.048-.008.031-.003a4.125 4.125 0 0 1 3.258.429l.001-.002.042.025.043.024v.002a4.125 4.125 0 0 1 2 2.607l.012.028.018.046c.11.322-.006.639-.26.708l-.777.212c-.253.07-.548-.135-.659-.457l-.007-.025h-.002l-.007-.029-.02-.1a2.31 2.31 0 0 0-1.151-1.514l-.002.004-.031-.023-.01-.006-.008-.005-.036-.015.002-.004a2.31 2.31 0 0 0-1.888-.24l-.096.032-.028.01v-.002l-.026.006c-.334.065-.66-.089-.726-.343l-.204-.778c-.067-.254.15-.514.483-.58zm-1.456-8.217l.073-.02.094-.01c2.886-.615 6.044-.142 8.793 1.546 2.836 1.537 4.825 4.035 5.735 6.842l.038.086.02.074c.064.297-.09.583-.37.659l-.927.252c-.27.074-.567-.074-.706-.337h-.002l-.007-.017-.033-.08a.57.57 0 0 1-.027-.112 9.855 9.855 0 0 0-4.7-5.575v.001l-.042-.025-.043-.024a9.855 9.855 0 0 0-7.176-1.283.624.624 0 0 1-.112.033l-.085.01-.019.004v-.002c-.297.01-.574-.172-.645-.443l-.245-.93c-.074-.28.096-.556.386-.649zm.906 4.294a.899.899 0 0 1 .099-.011 7.832 7.832 0 0 1 5.8.869v-.001l.042.025.043.024a7.83 7.83 0 0 1 3.65 4.588.57.57 0 0 1 .04.092l.013.04c.085.309-.054.609-.325.682l-.865.236c-.264.073-.559-.095-.687-.379l-.026-.063a.684.684 0 0 1-.034-.173 5.816 5.816 0 0 0-2.759-3.403 5.815 5.815 0 0 0-4.325-.687.696.696 0 0 1-.168.056l-.067.01c-.31.03-.603-.14-.672-.405l-.228-.868c-.072-.27.119-.542.428-.622l.041-.01zm2.106 7.523c.67.387.904 1.234.523 1.893-.38.659-1.231.88-1.9.494a1.389 1.389 0 0 1-.522-1.893c.38-.66 1.23-.88 1.9-.494z" fill="#37A0CE"/><path d="M127.108 203V76.265c.203-6.857 5.495-8.4 5.72-8.462l.15-.041.148-.069 28.244-13.41c7.788-2.887 7.66-9.012 7.624-9.67V17h-3.11l.003 27.725c.013.2.267 5.049-5.874 7.293l-.147.061-28.191 13.386c-1.203.374-7.437 2.697-7.674 10.77L124 203h3.108" fill="#36A1CE"/><path d="M141.971 206v-37.463c.261-6.225 4.398-9.131 4.867-9.442l14.327-6.53c6.15-2.467 5.87-7.223 5.817-7.769V123h-1.97l.004 21.908c.02.167.422 4.195-4.757 6.26l-.048.02-14.528 6.631c-.22.134-5.376 3.363-5.682 10.691L140 206h1.971" fill="#59C2E1"/><ellipse fill="#5AC2E0" cx="4" cy="64.215" rx="4" ry="4.013"/><ellipse fill="#5AC2E0" cx="32" cy="25.084" rx="3" ry="3.01"/><ellipse fill="#5AC2E0" cx="91.5" cy="52.677" rx="1.5" ry="1.505"/><ellipse fill="#5AC2E0" cx="69.5" cy="124.919" rx="2.5" ry="2.508"/><ellipse fill="#5AC2E0" cx="166" cy="123.414" rx="3" ry="3.01"/><ellipse fill="#37A0CE" cx="211.5" cy="132.946" rx="2.5" ry="2.508"/><ellipse fill="#37A0CE" cx="152.5" cy="92.811" rx="1.5" ry="1.505"/><ellipse fill="#37A0CE" cx="185.5" cy="104.852" rx="4.5" ry="4.515"/><ellipse fill="#37A0CE" cx="68.5" cy="63.714" rx="4.5" ry="4.515"/><ellipse fill="#37A0CE" cx="114" cy="5.017" rx="5" ry="5.017"/><ellipse fill="#37A0CE" cx="167.5" cy="16.556" rx="3.5" ry="3.512"/><ellipse fill="#37A0CE" cx="50.5" cy="21.589" rx="1.5" ry="1.505"/><ellipse fill="#5AC2E0" cx="176" cy="144.485" rx="2" ry="2.007"/><ellipse fill="#5AC2E0" cx="217" cy="45.152" rx="3" ry="3.01"/><ellipse fill="#37A0CE" cx="21" cy="100.337" rx="6" ry="6.02"/><path d="M67.438 28.757l-.026-.029-.03-.021-.037-.017-.038-.01h-.032l-.163.063-.018.017-.004.024v.03l.01.035s.43.966-.56 1.294l-.016.015-.007.01-.002.017.005.023.088.153.02.022.019.012.028.007.027.004.039-.004s1.178-.393.697-1.645zm.702-.209l-.03-.038-.034-.028-.043-.019-.045-.014-.04.006-.205.107-.025.024-.007.036-.003.043.008.047s.43 1.34-.814 1.903l-.021.024-.007.016-.005.025.002.03.092.21.022.03.022.015.034.007.034.003.047-.01s1.48-.676 1.018-2.417zm.802-.29l-.032-.05-.039-.036-.047-.022-.054-.016-.048.012-.255.162-.031.036-.012.05-.004.058.003.065s.397 1.794-1.133 2.669l-.028.033-.01.025-.008.033.001.042.093.28.023.038.025.019.04.006.04.002.055-.016s1.823-1.05 1.421-3.39zm-2.034 1.267c.088-.214.015-.446-.163-.517a.298.298 0 0 0-.137-.02l-.004-.002-.488-.185L67.3 25.74c-1.895-.678-3.999.268-4.72 2.137-.723 1.868.206 3.958 2.076 4.703l1.168-3.021.488.184.08.02.036.02c.177.071.393-.043.48-.257zm-4.823-4.37l-4.49-1.927a1.182 1.182 0 0 0-1.534.585l-.68 1.479a1.114 1.114 0 0 0 .579 1.493l4.49 1.926a1.18 1.18 0 0 0 1.533-.583l.681-1.48a1.113 1.113 0 0 0-.58-1.493zm-1.995-1.377l.946.412c.55.24 1.31.058 1.69-.404l.97-1.186c.378-.463.237-1.033-.317-1.268l-2.785-1.183c-.553-.235-1.071.055-1.153.644l-.203 1.476c-.082.59.302 1.268.852 1.509zm-1.245 4.727l-.939-.428c-.546-.249-1.309-.08-1.695.378l-.99 1.17c-.386.456-.253 1.03.295 1.272l2.768 1.228c.549.245 1.072-.038 1.163-.626l.226-1.473c.091-.588-.281-1.273-.828-1.521z" fill="#37A0CE"/><path d="M39.219 116.77a1.97 1.97 0 0 1 1.256.569l2.565-1.415a1.996 1.996 0 0 1-.013-.326 1.94 1.94 0 0 1 .098-.48l-2.87-2.15a1.978 1.978 0 0 1-1.391.459 1.995 1.995 0 0 1-1.86-2.117 1.99 1.99 0 0 1 2.11-1.865 1.991 1.991 0 0 1 1.798 2.482l2.966 2.169a1.966 1.966 0 0 1 1.26-.363 1.992 1.992 0 0 1 1.858 2.117 1.99 1.99 0 0 1-2.11 1.865 1.978 1.978 0 0 1-1.372-.682l-2.458 1.423a1.99 1.99 0 0 1-2.088 2.296 1.994 1.994 0 0 1-1.859-2.116 1.99 1.99 0 0 1 2.11-1.866m169.138-10.33c0 .41-.356.744-.793.744h-9.084c-.437 0-.792-.334-.792-.744v-5.8c0-.412.355-.746.792-.746h9.084c.437 0 .793.334.793.745v5.8zm-.249-7.107h-10.215a.888.888 0 0 0-.893.882v6.864c0 .486.4.881.893.881h4.002v.607h-3.79a.213.213 0 1 0 0 .424h9.816a.213.213 0 1 0 0-.424h-3.36v-.607h3.547a.887.887 0 0 0 .892-.881v-6.864a.887.887 0 0 0-.892-.882zM158 147.405a.865.865 0 0 1-.111.418l-2.188-2.456 2.164-1.9a.862.862 0 0 1 .135.462v3.476zm-3.385-1.588l3.08-2.705a.873.873 0 0 0-.422-.112h-5.316a.87.87 0 0 0-.422.112l3.08 2.705zm.86-.164l-.714.626a.22.22 0 0 1-.292 0l-.713-.626-2.266 2.544a.872.872 0 0 0 .467.137h5.316a.87.87 0 0 0 .467-.137l-2.266-2.544zm-4.266-2.236a.885.885 0 0 0-.138.472v3.556c0 .156.044.3.114.428l2.238-2.513-2.214-1.943z" fill="#5AC2E0"/></g><path d="M301.937 85.78a2.572 2.572 0 0 1 2.563-2.5 2.575 2.575 0 0 1 2.563 2.5L310 201.677h-11l2.937-115.897zm-237 0a2.572 2.572 0 0 1 2.563-2.5 2.575 2.575 0 0 1 2.563 2.5L73 201.677H62L64.937 85.78z" fill="#2E3436"/><path d="M40.886 200.673h290.103L382 234.788H0z" fill="#666"/><path d="M0 234.788h382v62.209H0z" fill="gray"/><path fill="#333" d="M9.657 243.8h364.28v44.655H9.657z"/><path d="M46.99 272.884c2.375-.109 4.222-3.15 4.106-6.86-.105-3.394-1.851-6.205-3.967-6.693v-.004c-.012-.003-.025-.004-.037-.006-.01-.002-.017-.006-.026-.008v.003c-1.426-.27-2.72.553-3.433 1.704-1.72 2.776-.829 7.7-2.904 10.398-.938 1.22-2.23 1.802-3.512 1.557-2.131-.513-3.83-3.318-3.936-6.724-.118-3.789 1.828-6.884 4.27-6.915v-.001c2.413.022 4.452 3.048 4.57 6.804.004.155.006.31.004.463.255-1.88.427-3.8 1.18-5.24-1.258-3.663-3.76-6.17-6.566-6.135v.005c-3.872.107-6.918 5.035-6.73 11.06.17 5.48 2.924 9.983 6.331 10.763v.003l.043.007c.016.004.031.009.047.012v-.003c2.266.444 3.828-.533 4.81-1.717 4.032-4.864 2.283-9.443 3.767-12.158.479-.876 1.29-1.553 2.333-1.353 1.316.311 2.434 2.078 2.5 4.195.073 2.348-1.124 4.267-2.638 4.287l-.001.01c-1.38-.039-2.566-1.631-2.802-3.684-.113 1.296-.202 2.747-.627 4.29.837 1.214 2.01 1.963 3.217 1.948v-.008z" fill="#4E4E4E"/><path d="M185.616 275.299a1.838 1.838 0 0 1-1.835 1.84 1.838 1.838 0 0 1-1.835-1.84c0-1.017.822-1.841 1.835-1.841 1.014 0 1.835.824 1.835 1.84zm14.544 0a1.838 1.838 0 0 1-1.836 1.84 1.838 1.838 0 0 1-1.835-1.84c0-1.017.822-1.841 1.835-1.841 1.014 0 1.835.824 1.835 1.84zm14.542 0a1.838 1.838 0 0 1-1.835 1.84 1.838 1.838 0 0 1-1.835-1.84c0-1.017.822-1.841 1.835-1.841 1.014 0 1.835.824 1.835 1.84zm14.542 0a1.838 1.838 0 0 1-1.835 1.84 1.838 1.838 0 0 1-1.835-1.84c0-1.017.822-1.841 1.835-1.841 1.014 0 1.835.824 1.835 1.84zm14.54 0a1.838 1.838 0 0 1-1.835 1.84 1.838 1.838 0 0 1-1.835-1.84c0-1.017.822-1.841 1.835-1.841 1.014 0 1.835.824 1.835 1.84zm14.55 0a1.838 1.838 0 0 1-1.835 1.84 1.838 1.838 0 0 1-1.835-1.84c0-1.017.822-1.841 1.835-1.841 1.014 0 1.835.824 1.835 1.84zm14.54 0a1.838 1.838 0 0 1-1.835 1.84 1.838 1.838 0 0 1-1.835-1.84c0-1.017.822-1.841 1.835-1.841 1.014 0 1.835.824 1.835 1.84zm14.54 0a1.838 1.838 0 0 1-1.835 1.84 1.838 1.838 0 0 1-1.835-1.84c0-1.017.822-1.841 1.835-1.841 1.014 0 1.835.824 1.835 1.84z" fill="green"/><path d="M185.616 256.247a1.838 1.838 0 0 1-1.835 1.842 1.838 1.838 0 0 1-1.835-1.842c0-1.016.821-1.84 1.835-1.84 1.013 0 1.835.824 1.835 1.84zm14.543 0a1.838 1.838 0 0 1-1.835 1.842 1.838 1.838 0 0 1-1.835-1.842c0-1.016.821-1.84 1.835-1.84 1.013 0 1.835.824 1.835 1.84zm14.544 0a1.838 1.838 0 0 1-1.835 1.842 1.838 1.838 0 0 1-1.835-1.842c0-1.016.821-1.84 1.835-1.84 1.013 0 1.835.824 1.835 1.84zm14.539 0a1.838 1.838 0 0 1-1.835 1.842 1.838 1.838 0 0 1-1.835-1.842c0-1.016.821-1.84 1.835-1.84 1.013 0 1.835.824 1.835 1.84z" fill="#C8AB37"/><path d="M185.616 265.773a1.838 1.838 0 0 1-1.835 1.84 1.838 1.838 0 0 1-1.835-1.84c0-1.017.822-1.841 1.835-1.841 1.014 0 1.835.824 1.835 1.84zm14.544 0a1.838 1.838 0 0 1-1.836 1.84 1.838 1.838 0 0 1-1.835-1.84c0-1.017.822-1.841 1.835-1.841 1.014 0 1.835.824 1.835 1.84zm14.542 0a1.838 1.838 0 0 1-1.835 1.84 1.838 1.838 0 0 1-1.835-1.84c0-1.017.822-1.841 1.835-1.841 1.014 0 1.835.824 1.835 1.84zm14.542 0a1.838 1.838 0 0 1-1.835 1.84 1.838 1.838 0 0 1-1.835-1.84c0-1.017.822-1.841 1.835-1.841 1.014 0 1.835.824 1.835 1.84zm14.54 0a1.838 1.838 0 0 1-1.835 1.84 1.838 1.838 0 0 1-1.835-1.84c0-1.017.822-1.841 1.835-1.841 1.014 0 1.835.824 1.835 1.84zm14.55 0a1.838 1.838 0 0 1-1.835 1.84 1.838 1.838 0 0 1-1.835-1.84c0-1.017.822-1.841 1.835-1.841 1.014 0 1.835.824 1.835 1.84zm14.54 0a1.838 1.838 0 0 1-1.835 1.84 1.838 1.838 0 0 1-1.835-1.84c0-1.017.822-1.841 1.835-1.841 1.014 0 1.835.824 1.835 1.84zm14.54 0a1.838 1.838 0 0 1-1.835 1.84 1.838 1.838 0 0 1-1.835-1.84c0-1.017.822-1.841 1.835-1.841 1.014 0 1.835.824 1.835 1.84z" fill="green"/></g></svg>